<mxfile host="Electron" modified="2024-12-12T16:12:40.557Z" agent="Mozilla/5.0 (Windows NT 10.0; Win64; x64) AppleWebKit/537.36 (KHTML, like Gecko) draw.io/24.0.4 Chrome/120.0.6099.109 Electron/28.1.0 Safari/537.36" etag="kUZSduA5-VYOB5x7DmQP" version="24.0.4" type="device">
  <diagram name="Page-1" id="xSfpuH_KWZMvsDcLVU6G">
    <mxGraphModel dx="2206" dy="1360" grid="1" gridSize="10" guides="1" tooltips="1" connect="1" arrows="1" fold="1" page="1" pageScale="1" pageWidth="827" pageHeight="1169" math="0" shadow="0">
      <root>
        <mxCell id="0" />
        <mxCell id="1" parent="0" />
        <mxCell id="hCo9Q1rI7oM0i6Kh0S9J-6" value="" style="edgeStyle=orthogonalEdgeStyle;rounded=0;orthogonalLoop=1;jettySize=auto;html=1;" edge="1" parent="1" source="hCo9Q1rI7oM0i6Kh0S9J-1" target="hCo9Q1rI7oM0i6Kh0S9J-5">
          <mxGeometry relative="1" as="geometry" />
        </mxCell>
        <mxCell id="hCo9Q1rI7oM0i6Kh0S9J-1" value="&lt;font style=&quot;&quot;&gt;&lt;span style=&quot;font-size: 20px;&quot;&gt;to create a doge coin address with private key run&lt;/span&gt;&lt;br&gt;&lt;font style=&quot;font-size: 20px;&quot;&gt;Create_Address_Doge.py&lt;/font&gt;&lt;br&gt;&lt;/font&gt;" style="rounded=1;whiteSpace=wrap;html=1;" vertex="1" parent="1">
          <mxGeometry x="184" y="120" width="460" height="50" as="geometry" />
        </mxCell>
        <mxCell id="hCo9Q1rI7oM0i6Kh0S9J-2" value="&lt;font style=&quot;font-size: 26px;&quot;&gt;Create_Address_Doge&lt;/font&gt;" style="rounded=1;whiteSpace=wrap;html=1;" vertex="1" parent="1">
          <mxGeometry x="261" y="40" width="306" height="60" as="geometry" />
        </mxCell>
        <mxCell id="hCo9Q1rI7oM0i6Kh0S9J-10" style="edgeStyle=orthogonalEdgeStyle;rounded=0;orthogonalLoop=1;jettySize=auto;html=1;" edge="1" parent="1" source="hCo9Q1rI7oM0i6Kh0S9J-5" target="hCo9Q1rI7oM0i6Kh0S9J-9">
          <mxGeometry relative="1" as="geometry" />
        </mxCell>
        <mxCell id="hCo9Q1rI7oM0i6Kh0S9J-5" value="&lt;div style=&quot;color: rgb(204, 204, 204); background-color: rgb(31, 31, 31); font-family: Consolas, &amp;quot;Courier New&amp;quot;, monospace; line-height: 113%; white-space: pre; font-size: 11px;&quot;&gt;&lt;div style=&quot;line-height: 113%;&quot;&gt;&lt;span style=&quot;color: #c586c0;&quot;&gt;from&lt;/span&gt; &lt;span style=&quot;color: #4ec9b0;&quot;&gt;Create_Address_Helper&lt;/span&gt; &lt;span style=&quot;color: #c586c0;&quot;&gt;import&lt;/span&gt; &lt;span style=&quot;color: #4ec9b0;&quot;&gt;Create_Address_Helper&lt;/span&gt;&lt;/div&gt;&lt;div style=&quot;line-height: 113%;&quot;&gt;&lt;span style=&quot;color: #c586c0;&quot;&gt;from&lt;/span&gt; &lt;span style=&quot;color: #4ec9b0;&quot;&gt;typing&lt;/span&gt; &lt;span style=&quot;color: #c586c0;&quot;&gt;import&lt;/span&gt; &lt;span style=&quot;color: #4ec9b0;&quot;&gt;Tuple&lt;/span&gt;&lt;/div&gt;&lt;br&gt;&lt;br&gt;&lt;div style=&quot;line-height: 113%;&quot;&gt;&lt;span style=&quot;color: #569cd6;&quot;&gt;class&lt;/span&gt; &lt;span style=&quot;color: #4ec9b0;&quot;&gt;Create_Address_Doge&lt;/span&gt;:&lt;/div&gt;&lt;div style=&quot;line-height: 113%;&quot;&gt;&amp;nbsp; &amp;nbsp; &lt;span style=&quot;color: #569cd6;&quot;&gt;def&lt;/span&gt; &lt;span style=&quot;color: #dcdcaa;&quot;&gt;__init__&lt;/span&gt;(&lt;/div&gt;&lt;div style=&quot;line-height: 113%;&quot;&gt;&amp;nbsp; &amp;nbsp; &amp;nbsp; &amp;nbsp; &lt;span style=&quot;color: #9cdcfe;&quot;&gt;self&lt;/span&gt;,&lt;/div&gt;&lt;div style=&quot;line-height: 113%;&quot;&gt;&amp;nbsp; &amp;nbsp; &amp;nbsp; &amp;nbsp; &lt;span style=&quot;color: #9cdcfe;&quot;&gt;testnet&lt;/span&gt;: &lt;span style=&quot;color: #4ec9b0;&quot;&gt;bool&lt;/span&gt; &lt;span style=&quot;color: #d4d4d4;&quot;&gt;=&lt;/span&gt; &lt;span style=&quot;color: #4fc1ff;&quot;&gt;False&lt;/span&gt;,&lt;/div&gt;&lt;div style=&quot;line-height: 113%;&quot;&gt;&amp;nbsp; &amp;nbsp; ):&lt;/div&gt;&lt;div style=&quot;line-height: 113%;&quot;&gt;&amp;nbsp; &amp;nbsp; &amp;nbsp; &amp;nbsp; &lt;span style=&quot;color: #9cdcfe;&quot;&gt;self&lt;/span&gt;.&lt;span style=&quot;color: #9cdcfe;&quot;&gt;coin_symbol&lt;/span&gt;: &lt;span style=&quot;color: #4ec9b0;&quot;&gt;str&lt;/span&gt; &lt;span style=&quot;color: #d4d4d4;&quot;&gt;=&lt;/span&gt; &lt;span style=&quot;color: #ce9178;&quot;&gt;&quot;doge&quot;&lt;/span&gt;&lt;/div&gt;&lt;div style=&quot;line-height: 113%;&quot;&gt;&amp;nbsp; &amp;nbsp; &amp;nbsp; &amp;nbsp; &lt;span style=&quot;color: #9cdcfe;&quot;&gt;self&lt;/span&gt;.&lt;span style=&quot;color: #9cdcfe;&quot;&gt;create_address_helper&lt;/span&gt;: &lt;span style=&quot;color: #4ec9b0;&quot;&gt;Create_Address_Helper&lt;/span&gt; &lt;span style=&quot;color: #d4d4d4;&quot;&gt;=&lt;/span&gt; &lt;span style=&quot;color: #4ec9b0;&quot;&gt;Create_Address_Helper&lt;/span&gt;(&lt;/div&gt;&lt;div style=&quot;line-height: 113%;&quot;&gt;&amp;nbsp; &amp;nbsp; &amp;nbsp; &amp;nbsp; &amp;nbsp; &amp;nbsp; &lt;span style=&quot;color: #9cdcfe;&quot;&gt;coin_symbol&lt;/span&gt;&lt;span style=&quot;color: #d4d4d4;&quot;&gt;=&lt;/span&gt;&lt;span style=&quot;color: #9cdcfe;&quot;&gt;self&lt;/span&gt;.&lt;span style=&quot;color: #9cdcfe;&quot;&gt;coin_symbol&lt;/span&gt;,&lt;/div&gt;&lt;div style=&quot;line-height: 113%;&quot;&gt;&amp;nbsp; &amp;nbsp; &amp;nbsp; &amp;nbsp; &amp;nbsp; &amp;nbsp; &lt;span style=&quot;color: #9cdcfe;&quot;&gt;testnet&lt;/span&gt;&lt;span style=&quot;color: #d4d4d4;&quot;&gt;=&lt;/span&gt;&lt;span style=&quot;color: #9cdcfe;&quot;&gt;testnet&lt;/span&gt;,&lt;/div&gt;&lt;div style=&quot;line-height: 113%;&quot;&gt;&amp;nbsp; &amp;nbsp; &amp;nbsp; &amp;nbsp; )&lt;/div&gt;&lt;br&gt;&lt;div style=&quot;line-height: 113%;&quot;&gt;&amp;nbsp; &amp;nbsp; &lt;span style=&quot;color: #569cd6;&quot;&gt;def&lt;/span&gt; &lt;span style=&quot;color: #dcdcaa;&quot;&gt;make_address_doge&lt;/span&gt;(&lt;/div&gt;&lt;div style=&quot;line-height: 113%;&quot;&gt;&amp;nbsp; &amp;nbsp; &amp;nbsp; &amp;nbsp; &lt;span style=&quot;color: #9cdcfe;&quot;&gt;self&lt;/span&gt;,&lt;/div&gt;&lt;div style=&quot;line-height: 113%;&quot;&gt;&amp;nbsp; &amp;nbsp; &amp;nbsp; &amp;nbsp; &lt;span style=&quot;color: #9cdcfe;&quot;&gt;print_result&lt;/span&gt;: &lt;span style=&quot;color: #4ec9b0;&quot;&gt;bool&lt;/span&gt; &lt;span style=&quot;color: #d4d4d4;&quot;&gt;=&lt;/span&gt; &lt;span style=&quot;color: #4fc1ff;&quot;&gt;True&lt;/span&gt;,&lt;/div&gt;&lt;div style=&quot;line-height: 113%;&quot;&gt;&amp;nbsp; &amp;nbsp; ) -&amp;gt; &lt;span style=&quot;color: #4ec9b0;&quot;&gt;Tuple&lt;/span&gt;[&lt;span style=&quot;color: #4ec9b0;&quot;&gt;str&lt;/span&gt;, &lt;span style=&quot;color: #4ec9b0;&quot;&gt;str&lt;/span&gt;]:&lt;/div&gt;&lt;div style=&quot;line-height: 113%;&quot;&gt;&amp;nbsp; &amp;nbsp; &amp;nbsp; &amp;nbsp; &lt;span style=&quot;color: #9cdcfe;&quot;&gt;privkey&lt;/span&gt;: &lt;span style=&quot;color: #4ec9b0;&quot;&gt;str&lt;/span&gt; &lt;span style=&quot;color: #d4d4d4;&quot;&gt;=&lt;/span&gt; &lt;span style=&quot;color: #ce9178;&quot;&gt;&quot;&quot;&lt;/span&gt;&lt;/div&gt;&lt;div style=&quot;line-height: 113%;&quot;&gt;&amp;nbsp; &amp;nbsp; &amp;nbsp; &amp;nbsp; &lt;span style=&quot;color: #9cdcfe;&quot;&gt;pub_address&lt;/span&gt;: &lt;span style=&quot;color: #4ec9b0;&quot;&gt;str&lt;/span&gt; &lt;span style=&quot;color: #d4d4d4;&quot;&gt;=&lt;/span&gt; &lt;span style=&quot;color: #ce9178;&quot;&gt;&quot;&quot;&lt;/span&gt;&lt;/div&gt;&lt;div style=&quot;line-height: 113%;&quot;&gt;&amp;nbsp; &amp;nbsp; &amp;nbsp; &amp;nbsp; &lt;span style=&quot;color: #9cdcfe;&quot;&gt;privkey&lt;/span&gt;, &lt;span style=&quot;color: #9cdcfe;&quot;&gt;pub_address&lt;/span&gt; &lt;span style=&quot;color: #d4d4d4;&quot;&gt;=&lt;/span&gt; &lt;span style=&quot;color: #9cdcfe;&quot;&gt;self&lt;/span&gt;.&lt;span style=&quot;color: #9cdcfe;&quot;&gt;create_address_helper&lt;/span&gt;.&lt;span style=&quot;color: #dcdcaa;&quot;&gt;make_address&lt;/span&gt;(&lt;/div&gt;&lt;div style=&quot;line-height: 113%;&quot;&gt;&amp;nbsp; &amp;nbsp; &amp;nbsp; &amp;nbsp; &amp;nbsp; &amp;nbsp; &lt;span style=&quot;color: #9cdcfe;&quot;&gt;print_result&lt;/span&gt;&lt;span style=&quot;color: #d4d4d4;&quot;&gt;=&lt;/span&gt;&lt;span style=&quot;color: #9cdcfe;&quot;&gt;print_result&lt;/span&gt;&lt;/div&gt;&lt;div style=&quot;line-height: 113%;&quot;&gt;&amp;nbsp; &amp;nbsp; &amp;nbsp; &amp;nbsp; )&lt;/div&gt;&lt;br&gt;&lt;div style=&quot;line-height: 113%;&quot;&gt;&amp;nbsp; &amp;nbsp; &amp;nbsp; &amp;nbsp; &lt;span style=&quot;color: #c586c0;&quot;&gt;return&lt;/span&gt; &lt;span style=&quot;color: #9cdcfe;&quot;&gt;privkey&lt;/span&gt;, &lt;span style=&quot;color: #9cdcfe;&quot;&gt;pub_address&lt;/span&gt;&lt;/div&gt;&lt;br&gt;&lt;div style=&quot;line-height: 113%;&quot;&gt;&amp;nbsp; &amp;nbsp; &lt;span style=&quot;color: #569cd6;&quot;&gt;def&lt;/span&gt; &lt;span style=&quot;color: #dcdcaa;&quot;&gt;print_available_coins&lt;/span&gt;(&lt;/div&gt;&lt;div style=&quot;line-height: 113%;&quot;&gt;&amp;nbsp; &amp;nbsp; &amp;nbsp; &amp;nbsp; &lt;span style=&quot;color: #9cdcfe;&quot;&gt;self&lt;/span&gt;,&lt;/div&gt;&lt;div style=&quot;line-height: 113%;&quot;&gt;&amp;nbsp; &amp;nbsp; ):&lt;/div&gt;&lt;div style=&quot;line-height: 113%;&quot;&gt;&amp;nbsp; &amp;nbsp; &amp;nbsp; &amp;nbsp; &lt;span style=&quot;color: #9cdcfe;&quot;&gt;self&lt;/span&gt;.&lt;span style=&quot;color: #9cdcfe;&quot;&gt;create_address_helper&lt;/span&gt;.&lt;span style=&quot;color: #dcdcaa;&quot;&gt;print_available_coins&lt;/span&gt;()&lt;/div&gt;&lt;br&gt;&lt;br&gt;&lt;div style=&quot;line-height: 113%;&quot;&gt;&lt;span style=&quot;color: #c586c0;&quot;&gt;if&lt;/span&gt; &lt;span style=&quot;color: #9cdcfe;&quot;&gt;__name__&lt;/span&gt; &lt;span style=&quot;color: #d4d4d4;&quot;&gt;==&lt;/span&gt; &lt;span style=&quot;color: #ce9178;&quot;&gt;&quot;__main__&quot;&lt;/span&gt;:&lt;/div&gt;&lt;div style=&quot;line-height: 113%;&quot;&gt;&amp;nbsp; &amp;nbsp; &lt;span style=&quot;color: #9cdcfe;&quot;&gt;create_new_address&lt;/span&gt;: &lt;span style=&quot;color: #4ec9b0;&quot;&gt;Create_Address_Doge&lt;/span&gt; &lt;span style=&quot;color: #d4d4d4;&quot;&gt;=&lt;/span&gt; &lt;span style=&quot;color: #4ec9b0;&quot;&gt;Create_Address_Doge&lt;/span&gt;()&lt;/div&gt;&lt;div style=&quot;line-height: 113%;&quot;&gt;&amp;nbsp; &amp;nbsp; &lt;span style=&quot;color: #9cdcfe;&quot;&gt;privkey&lt;/span&gt;: &lt;span style=&quot;color: #4ec9b0;&quot;&gt;str&lt;/span&gt; &lt;span style=&quot;color: #d4d4d4;&quot;&gt;=&lt;/span&gt; &lt;span style=&quot;color: #ce9178;&quot;&gt;&quot;&quot;&lt;/span&gt;&lt;/div&gt;&lt;div style=&quot;line-height: 113%;&quot;&gt;&amp;nbsp; &amp;nbsp; &lt;span style=&quot;color: #9cdcfe;&quot;&gt;pub_address&lt;/span&gt;: &lt;span style=&quot;color: #4ec9b0;&quot;&gt;str&lt;/span&gt; &lt;span style=&quot;color: #d4d4d4;&quot;&gt;=&lt;/span&gt; &lt;span style=&quot;color: #ce9178;&quot;&gt;&quot;&quot;&lt;/span&gt;&lt;/div&gt;&lt;div style=&quot;line-height: 113%;&quot;&gt;&amp;nbsp; &amp;nbsp; &lt;span style=&quot;color: #9cdcfe;&quot;&gt;privkey&lt;/span&gt;, &lt;span style=&quot;color: #9cdcfe;&quot;&gt;pub_address&lt;/span&gt; &lt;span style=&quot;color: #d4d4d4;&quot;&gt;=&lt;/span&gt; &lt;span style=&quot;color: #9cdcfe;&quot;&gt;create_new_address&lt;/span&gt;.&lt;span style=&quot;color: #dcdcaa;&quot;&gt;make_address_doge&lt;/span&gt;()&lt;/div&gt;&lt;div style=&quot;line-height: 113%;&quot;&gt;&amp;nbsp; &amp;nbsp; &lt;span style=&quot;color: #6a9955;&quot;&gt;# create_new_address.print_available_coins()&lt;/span&gt;&lt;/div&gt;&lt;br&gt;&lt;/div&gt;" style="rounded=0;whiteSpace=wrap;html=1;align=left;" vertex="1" parent="1">
          <mxGeometry x="154" y="220" width="520" height="510" as="geometry" />
        </mxCell>
        <mxCell id="hCo9Q1rI7oM0i6Kh0S9J-9" value="&lt;font style=&quot;font-size: 11px;&quot;&gt;&lt;br&gt;&lt;/font&gt;&lt;div style=&quot;color: rgb(204, 204, 204); background-color: rgb(31, 31, 31); font-family: Consolas, &amp;quot;Courier New&amp;quot;, monospace; font-weight: normal; line-height: 110%; white-space: pre; font-size: 11px;&quot;&gt;&lt;div style=&quot;line-height: 110%;&quot;&gt;&lt;span style=&quot;color: #cccccc;&quot;&gt;&lt;font style=&quot;font-size: 11px;&quot;&gt;&amp;nbsp; &amp;nbsp; Result is this:(print in terminal)&lt;/font&gt;&lt;/span&gt;&lt;/div&gt;&lt;font style=&quot;font-size: 11px;&quot;&gt;&lt;br&gt;&lt;/font&gt;&lt;div style=&quot;line-height: 110%;&quot;&gt;&lt;span style=&quot;color: #cccccc;&quot;&gt;&lt;font style=&quot;font-size: 11px;&quot;&gt;&amp;nbsp; &amp;nbsp; &amp;nbsp; &amp;nbsp; ------------------------------------------------------------ &amp;nbsp; &amp;nbsp;&lt;/font&gt;&lt;/span&gt;&lt;/div&gt;&lt;div style=&quot;line-height: 110%;&quot;&gt;&lt;span style=&quot;color: #cccccc;&quot;&gt;&lt;font style=&quot;font-size: 11px;&quot;&gt;&amp;nbsp; &amp;nbsp; &amp;nbsp; &amp;nbsp; Created doge address &amp;nbsp;Network: Mainnet(the real doge blockchain)&lt;/font&gt;&lt;/span&gt;&lt;/div&gt;&lt;div style=&quot;line-height: 110%;&quot;&gt;&lt;span style=&quot;color: #cccccc;&quot;&gt;&lt;font style=&quot;font-size: 11px;&quot;&gt;&amp;nbsp; &amp;nbsp; &amp;nbsp; &amp;nbsp; ------------------------------------------------------------&lt;/font&gt;&lt;/span&gt;&lt;/div&gt;&lt;div style=&quot;line-height: 110%;&quot;&gt;&lt;span style=&quot;color: #cccccc;&quot;&gt;&lt;font style=&quot;font-size: 11px;&quot;&gt;&amp;nbsp; &amp;nbsp; &amp;nbsp; &amp;nbsp; doge:Private Key: &amp;nbsp; &amp;nbsp; &amp;nbsp; &amp;nbsp;baa778ce2b842c97da52ac37e6163a2514844a637b02afabd92f0922d4ec1e88&lt;/font&gt;&lt;/span&gt;&lt;/div&gt;&lt;div style=&quot;line-height: 110%;&quot;&gt;&lt;span style=&quot;color: #cccccc;&quot;&gt;&lt;font style=&quot;font-size: 11px;&quot;&gt;&amp;nbsp; &amp;nbsp; &amp;nbsp; &amp;nbsp; doge:Public_address: &amp;nbsp; &amp;nbsp; DNV2oGc6jnYV3uZXx33oNWEzvSiYy5sVox&lt;/font&gt;&lt;/span&gt;&lt;/div&gt;&lt;div style=&quot;line-height: 110%;&quot;&gt;&lt;span style=&quot;color: #cccccc;&quot;&gt;&lt;font style=&quot;font-size: 11px;&quot;&gt;&amp;nbsp; &amp;nbsp; &amp;nbsp; &amp;nbsp; ------------------------------------------------------------&lt;/font&gt;&lt;/span&gt;&lt;/div&gt;&lt;div style=&quot;line-height: 110%;&quot;&gt;&lt;span style=&quot;color: #cccccc;&quot;&gt;&lt;font style=&quot;font-size: 11px;&quot;&gt;&amp;nbsp; &amp;nbsp; &amp;nbsp; &amp;nbsp; test it: https://live.blockcypher.com/btc/address/1EfayE6j4nv6L13Q2BdDtys7Gs2b791ev4/&lt;/font&gt;&lt;/span&gt;&lt;/div&gt;&lt;div style=&quot;line-height: 110%;&quot;&gt;&lt;span style=&quot;color: #cccccc;&quot;&gt;&lt;font style=&quot;font-size: 11px;&quot;&gt;&amp;nbsp; &amp;nbsp; &amp;nbsp; &amp;nbsp; ------------------------------------------------------------&lt;/font&gt;&lt;/span&gt;&lt;/div&gt;&lt;div style=&quot;line-height: 110%;&quot;&gt;&lt;span style=&quot;color: #cccccc;&quot;&gt;&lt;font style=&quot;font-size: 11px;&quot;&gt;&amp;nbsp; &amp;nbsp; &amp;nbsp; &amp;nbsp; ------------------------------------------------------------&lt;/font&gt;&lt;/span&gt;&lt;/div&gt;&lt;div style=&quot;line-height: 110%;&quot;&gt;&lt;span style=&quot;color: #cccccc;&quot;&gt;&lt;font style=&quot;font-size: 11px;&quot;&gt;&amp;nbsp; &amp;nbsp; &amp;nbsp; &amp;nbsp; test it(testnet): https://blockexplorer.one/dogecoin/testnet/address/ns3c8yGKiTL1TGgQru9CFbSwGxgLt3EHph&lt;/font&gt;&lt;/span&gt;&lt;/div&gt;&lt;div style=&quot;line-height: 110%;&quot;&gt;&lt;span style=&quot;color: #cccccc;&quot;&gt;&lt;font style=&quot;font-size: 11px;&quot;&gt;&amp;nbsp; &amp;nbsp; &amp;nbsp; &amp;nbsp; ------------------------------------------------------------&lt;/font&gt;&lt;/span&gt;&lt;/div&gt;&lt;/div&gt;&lt;div style=&quot;line-height: 110%; font-size: 11px;&quot;&gt;&lt;br&gt;&lt;/div&gt;" style="rounded=0;whiteSpace=wrap;html=1;align=left;opacity=90;" vertex="1" parent="1">
          <mxGeometry x="69" y="810" width="690" height="250" as="geometry" />
        </mxCell>
      </root>
    </mxGraphModel>
  </diagram>
</mxfile>
